<svg xmlns="http://www.w3.org/2000/svg" version="1.1" xmlns:xlink="http://www.w3.org/1999/xlink" width="1021" height="346"><svg width="1021" height="346" viewBox="0 0 1021 346" fill="none" xmlns="http://www.w3.org/2000/svg">
<path d="M522.537 343H504.537V3.5H522.537V343ZM636 293.5H580.5V140H636V293.5ZM776.558 265.5C776.869 265.5 777.271 265.563 777.653 265.813C778.057 266.078 778.297 266.458 778.411 266.836C778.606 267.482 778.438 268.122 778.306 268.513C778.008 269.391 777.355 270.478 776.508 271.636C774.776 274.001 771.913 277.089 768.236 280.152C760.908 286.258 750.065 292.5 738.149 292.5H653.559L654.662 290.322L666.824 266.322L667.241 265.5H776.558ZM339.892 72.3555L442.892 288.855L443.912 291H387.094L386.685 290.149L282.685 73.6494L281.652 71.5H339.484L339.892 72.3555ZM354.213 264.322L366.375 288.322L367.479 290.5H282.888C270.972 290.5 260.129 284.258 252.801 278.152C249.124 275.089 246.261 272.001 244.529 269.636C243.682 268.478 243.029 267.391 242.731 266.513C242.599 266.122 242.431 265.482 242.626 264.836C242.74 264.458 242.981 264.077 243.384 263.813C243.766 263.564 244.168 263.5 244.479 263.5H353.796L354.213 264.322ZM491.537 162.333L491.396 162.635L445.396 261.135L444.003 264.117L442.666 261.109L416.666 202.609L416.386 201.979L416.683 201.355L446.683 138.355L447.09 137.5H491.537V162.333ZM879.247 209.5C879.639 209.5 880.105 209.581 880.536 209.864C880.988 210.161 881.261 210.589 881.394 211.028C881.625 211.797 881.436 212.619 881.226 213.242C880.772 214.585 879.739 216.336 878.313 218.29C875.425 222.249 870.614 227.462 864.407 232.65C852.021 243.006 833.795 253.5 813.858 253.5H671.562L672.661 251.324L693.367 210.324L693.783 209.5H879.247ZM327.67 208.324L348.376 249.324L349.476 251.5H207.179C187.242 251.5 169.016 241.006 156.63 230.65C150.423 225.462 145.612 220.249 142.724 216.29C141.298 214.336 140.265 212.585 139.812 211.242C139.601 210.619 139.412 209.797 139.644 209.028C139.776 208.589 140.049 208.161 140.501 207.864C140.932 207.581 141.398 207.5 141.79 207.5H327.254L327.67 208.324ZM940.119 147.5C940.544 147.5 941.037 147.588 941.488 147.885C941.96 148.195 942.247 148.643 942.387 149.107C942.633 149.927 942.435 150.823 942.192 151.542C941.674 153.076 940.485 155.101 938.821 157.384C935.457 161.999 929.843 168.086 922.595 174.15C908.125 186.256 886.86 198.5 863.621 198.5H697.562L698.661 196.324L722.886 148.324L723.301 147.5H940.119ZM298.151 146.324L322.376 194.324L323.475 196.5H157.416C134.177 196.5 112.912 184.256 98.4424 172.15C91.1943 166.086 85.5803 159.999 82.2158 155.384C80.5518 153.101 79.3629 151.076 78.8447 149.542C78.6019 148.823 78.404 147.927 78.6504 147.107C78.79 146.643 79.0769 146.195 79.5488 145.885C79.9998 145.588 80.4934 145.5 80.918 145.5H297.736L298.151 146.324ZM1015 72.5C1015.46 72.5 1015.99 72.5964 1016.46 72.9092C1016.96 73.2358 1017.26 73.7076 1017.41 74.2031C1017.68 75.0852 1017.47 76.072 1017.19 76.9072C1016.59 78.6738 1015.21 81.0307 1013.26 83.7119C1009.31 89.1242 1002.72 96.274 994.211 103.4C977.21 117.631 952.251 132 924.998 132H730.062L731.159 129.824L759.659 73.3242L760.075 72.5H1015ZM261.376 71.3242L289.876 127.824L290.974 130H96.0371C68.7846 130 43.8252 115.631 26.8242 101.4C18.3104 94.274 11.7209 87.1242 7.77734 81.7119C5.82376 79.0307 4.44397 76.6738 3.84766 74.9072C3.56576 74.072 3.35721 73.0852 3.62207 72.2031C3.77088 71.7076 4.07412 71.2358 4.57031 70.9092C5.04578 70.5964 5.57248 70.5 6.03711 70.5H260.96L261.376 71.3242ZM734.345 74.665L709.845 124.165L709.432 125H534.5V72.5H735.416L734.345 74.665ZM492.537 124.5H452.176L453.18 122.362L476.18 73.3623L476.584 72.5H492.537V124.5Z" fill="#3E66A1"></path>
<path d="M522.537 343V346H525.537V343H522.537ZM504.537 343H501.537V346H504.537V343ZM504.537 3.5V0.5H501.537V3.5H504.537ZM522.537 3.5H525.537V0.5H522.537V3.5ZM636 293.5V296.5H639V293.5H636ZM580.5 293.5H577.5V296.5H580.5V293.5ZM580.5 140V137H577.5V140H580.5ZM636 140H639V137H636V140ZM776.558 265.5V262.5V265.5ZM777.653 265.813L779.297 263.304L779.297 263.304L777.653 265.813ZM778.411 266.836L781.283 265.969L781.283 265.969L778.411 266.836ZM778.306 268.513L781.147 269.476L781.147 269.476L778.306 268.513ZM776.508 271.636L778.929 273.408V273.408L776.508 271.636ZM768.236 280.152L770.157 282.457L768.236 280.152ZM653.559 292.5L650.883 291.144L648.675 295.5H653.559V292.5ZM654.662 290.322L651.986 288.966V288.966L654.662 290.322ZM666.824 266.322L664.149 264.965L664.148 264.966L666.824 266.322ZM667.241 265.5V262.5H665.399L664.566 264.143L667.241 265.5ZM339.892 72.3555L342.601 71.0666L342.6 71.066L339.892 72.3555ZM442.892 288.855L440.183 290.144L440.183 290.145L442.892 288.855ZM443.912 291V294H448.662L446.621 289.711L443.912 291ZM387.094 291L384.39 292.301L385.208 294H387.094V291ZM386.685 290.149L383.98 291.448L383.981 291.45L386.685 290.149ZM282.685 73.6494L279.98 74.9481L279.98 74.9484L282.685 73.6494ZM281.652 71.5V68.5H276.884L278.948 72.7987L281.652 71.5ZM339.484 71.5L342.193 70.2106L341.379 68.5H339.484V71.5ZM354.213 264.322L356.889 262.966L356.888 262.965L354.213 264.322ZM366.375 288.322L369.051 286.966L369.051 286.966L366.375 288.322ZM367.479 290.5V293.5H372.362L370.155 289.144L367.479 290.5ZM252.801 278.152L250.88 280.457L250.88 280.457L252.801 278.152ZM244.529 269.636L242.109 271.408L242.109 271.408L244.529 269.636ZM242.731 266.513L239.89 267.476L239.89 267.476L242.731 266.513ZM242.626 264.836L239.754 263.969L239.754 263.969L242.626 264.836ZM243.384 263.813L241.741 261.303L241.74 261.304L243.384 263.813ZM244.479 263.5V260.5H244.479L244.479 263.5ZM353.796 263.5L356.471 262.143L355.638 260.5H353.796V263.5ZM491.537 162.333L494.256 163.6L494.537 162.998V162.333H491.537ZM491.396 162.635L494.115 163.904L494.116 163.902L491.396 162.635ZM445.396 261.135L448.114 262.405L448.115 262.404L445.396 261.135ZM444.003 264.117L441.262 265.336L443.935 271.35L446.721 265.387L444.003 264.117ZM442.666 261.109L439.925 262.328L439.925 262.328L442.666 261.109ZM416.666 202.609L413.924 203.827L413.925 203.828L416.666 202.609ZM416.386 201.979L413.677 200.688L413.083 201.935L413.644 203.197L416.386 201.979ZM416.683 201.355L419.391 202.646L419.391 202.645L416.683 201.355ZM446.683 138.355L449.391 139.645L449.391 139.645L446.683 138.355ZM447.09 137.5V134.5H445.195L444.381 136.211L447.09 137.5ZM491.537 137.5H494.537V134.5H491.537V137.5ZM879.247 209.5L879.247 206.5H879.247V209.5ZM880.536 209.864L882.184 207.357L882.183 207.357L880.536 209.864ZM881.394 211.028L884.267 210.165L884.266 210.164L881.394 211.028ZM881.226 213.242L884.068 214.203L884.068 214.203L881.226 213.242ZM878.313 218.29L880.737 220.058V220.058L878.313 218.29ZM864.407 232.65L866.331 234.952L866.331 234.952L864.407 232.65ZM671.562 253.5L668.884 252.147L666.684 256.5H671.562V253.5ZM672.661 251.324L675.339 252.677L675.339 252.677L672.661 251.324ZM693.367 210.324L696.045 211.677L696.045 211.676L693.367 210.324ZM693.783 209.5V206.5H691.937L691.105 208.148L693.783 209.5ZM327.67 208.324L324.992 209.676L324.992 209.677L327.67 208.324ZM348.376 249.324L345.698 250.677L345.698 250.677L348.376 249.324ZM349.476 251.5V254.5H354.353L352.153 250.147L349.476 251.5ZM156.63 230.65L154.706 232.952H154.706L156.63 230.65ZM142.724 216.29L140.3 218.058L140.3 218.058L142.724 216.29ZM139.812 211.242L136.969 212.203L136.969 212.203L139.812 211.242ZM139.644 209.028L136.771 208.164L136.771 208.165L139.644 209.028ZM140.501 207.864L138.854 205.357L138.854 205.357L140.501 207.864ZM141.79 207.5V204.5H141.79L141.79 207.5ZM327.254 207.5L329.932 206.148L329.1 204.5H327.254V207.5ZM940.119 147.5L940.119 144.5H940.119V147.5ZM941.488 147.885L943.137 145.378L943.136 145.378L941.488 147.885ZM942.387 149.107L945.26 148.244V148.244L942.387 149.107ZM942.192 151.542L945.035 152.502L945.035 152.502L942.192 151.542ZM938.821 157.384L941.246 159.151L938.821 157.384ZM922.595 174.15L924.52 176.451H924.52L922.595 174.15ZM863.621 198.5V201.5V198.5ZM697.562 198.5L694.885 197.148L692.687 201.5H697.562V198.5ZM698.661 196.324L701.339 197.676L701.339 197.676L698.661 196.324ZM722.886 148.324L725.564 149.676L725.565 149.673L722.886 148.324ZM723.301 147.5V144.5H721.453L720.621 146.151L723.301 147.5ZM298.151 146.324L295.472 147.673L295.473 147.676L298.151 146.324ZM322.376 194.324L319.698 195.676L319.698 195.676L322.376 194.324ZM323.475 196.5V199.5H328.35L326.153 195.148L323.475 196.5ZM157.416 196.5L157.416 199.5H157.416V196.5ZM98.4424 172.15L96.5174 174.451H96.5174L98.4424 172.15ZM82.2158 155.384L79.7916 157.151L82.2158 155.384ZM78.8447 149.542L76.0024 150.502L76.0024 150.502L78.8447 149.542ZM78.6504 147.107L75.7773 146.244L75.7773 146.244L78.6504 147.107ZM79.5488 145.885L77.9008 143.378L77.9003 143.378L79.5488 145.885ZM80.918 145.5V142.5H80.9177L80.918 145.5ZM297.736 145.5L300.416 144.151L299.585 142.5H297.736V145.5ZM1015 72.5V69.5V72.5ZM1016.46 72.9092L1018.11 70.4032L1018.11 70.4029L1016.46 72.9092ZM1017.41 74.2031L1020.29 73.3403V73.3403L1017.41 74.2031ZM1017.19 76.9072L1020.03 77.8667V77.8666L1017.19 76.9072ZM1013.26 83.7119L1015.68 85.4786V85.4786L1013.26 83.7119ZM994.211 103.4L996.137 105.701V105.701L994.211 103.4ZM730.062 132L727.383 130.649L725.188 135H730.062V132ZM731.159 129.824L733.838 131.175L733.838 131.175L731.159 129.824ZM759.659 73.3242L756.981 71.9724L756.981 71.9731L759.659 73.3242ZM760.075 72.5V69.5H758.229L757.397 71.1482L760.075 72.5ZM261.376 71.3242L264.055 69.9731L264.054 69.9724L261.376 71.3242ZM289.876 127.824L287.197 129.175L287.198 129.175L289.876 127.824ZM290.974 130V133H295.847L293.652 128.649L290.974 130ZM26.8242 101.4L24.8986 103.701L24.8986 103.701L26.8242 101.4ZM7.77734 81.7119L5.35268 83.4786L5.35269 83.4786L7.77734 81.7119ZM3.84766 74.9072L1.00519 75.8666L1.00522 75.8667L3.84766 74.9072ZM3.62207 72.2031L0.748839 71.3403L0.748812 71.3403L3.62207 72.2031ZM4.57031 70.9092L2.92166 68.4028L2.921 68.4032L4.57031 70.9092ZM6.03711 70.5V67.5H6.03709L6.03711 70.5ZM260.96 70.5L263.638 69.1482L262.806 67.5H260.96V70.5ZM734.345 74.665L737.033 75.9958L737.034 75.9955L734.345 74.665ZM709.845 124.165L707.156 122.834L707.156 122.835L709.845 124.165ZM709.432 125V128H711.294L712.121 126.33L709.432 125ZM534.5 125H531.5V128H534.5V125ZM534.5 72.5V69.5H531.5V72.5H534.5ZM735.416 72.5L738.105 73.8305L740.248 69.5H735.416V72.5ZM492.537 124.5V127.5H495.537V124.5H492.537ZM452.176 124.5L449.46 123.225L447.453 127.5H452.176V124.5ZM453.18 122.362L455.895 123.638L455.895 123.637L453.18 122.362ZM476.18 73.3623L478.895 74.637L478.896 74.6358L476.18 73.3623ZM476.584 72.5V69.5H474.677L473.868 71.2265L476.584 72.5ZM492.537 72.5H495.537V69.5H492.537V72.5ZM522.537 343V340H504.537V343V346H522.537V343ZM504.537 343H507.537V3.5H504.537H501.537V343H504.537ZM504.537 3.5V6.5H522.537V3.5V0.5H504.537V3.5ZM522.537 3.5H519.537V343H522.537H525.537V3.5H522.537ZM636 293.5V290.5H580.5V293.5V296.5H636V293.5ZM580.5 293.5H583.5V140H580.5H577.5V293.5H580.5ZM580.5 140V143H636V140V137H580.5V140ZM636 140H633V293.5H636H639V140H636ZM776.558 265.5V268.5C776.479 268.5 776.257 268.485 776.01 268.323L777.653 265.813L779.297 263.304C778.286 262.642 777.258 262.5 776.558 262.5V265.5ZM777.653 265.813L776.01 268.323C775.742 268.148 775.599 267.9 775.539 267.703L778.411 266.836L781.283 265.969C780.995 265.016 780.371 264.007 779.297 263.304L777.653 265.813ZM778.411 266.836L775.539 267.702C775.488 267.534 775.501 267.423 775.502 267.418C775.502 267.414 775.502 267.423 775.495 267.448C775.489 267.472 775.48 267.504 775.465 267.549L778.306 268.513L781.147 269.476C781.324 268.955 781.761 267.554 781.283 265.969L778.411 266.836ZM778.306 268.513L775.465 267.549C775.317 267.984 774.886 268.773 774.087 269.864L776.508 271.636L778.929 273.408C779.825 272.184 780.698 270.798 781.147 269.476L778.306 268.513ZM776.508 271.636L774.087 269.864C772.525 271.998 769.84 274.911 766.316 277.848L768.236 280.152L770.157 282.457C773.987 279.266 777.028 276.004 778.929 273.408L776.508 271.636ZM768.236 280.152L766.316 277.848C759.241 283.742 749.065 289.5 738.149 289.5V292.5V295.5C751.066 295.5 762.576 288.773 770.157 282.457L768.236 280.152ZM738.149 292.5V289.5H653.559V292.5V295.5H738.149V292.5ZM653.559 292.5L656.235 293.856L657.338 291.678L654.662 290.322L651.986 288.966L650.883 291.144L653.559 292.5ZM654.662 290.322L657.338 291.678L669.5 267.678L666.824 266.322L664.148 264.966L651.986 288.966L654.662 290.322ZM666.824 266.322L669.5 267.679L669.917 266.857L667.241 265.5L664.566 264.143L664.149 264.965L666.824 266.322ZM667.241 265.5V268.5H776.558V265.5V262.5H667.241V265.5ZM339.892 72.3555L337.183 73.6443L440.183 290.144L442.892 288.855L445.601 287.567L342.601 71.0666L339.892 72.3555ZM442.892 288.855L440.183 290.145L441.203 292.289L443.912 291L446.621 289.711L445.601 287.566L442.892 288.855ZM443.912 291V288H387.094V291V294H443.912V291ZM387.094 291L389.797 289.699L389.388 288.849L386.685 290.149L383.981 291.45L384.39 292.301L387.094 291ZM386.685 290.149L389.389 288.85L285.389 72.3504L282.685 73.6494L279.98 74.9484L383.98 291.448L386.685 290.149ZM282.685 73.6494L285.389 72.3507L284.357 70.2013L281.652 71.5L278.948 72.7987L279.98 74.9481L282.685 73.6494ZM281.652 71.5V74.5H339.484V71.5V68.5H281.652V71.5ZM339.484 71.5L336.776 72.7894L337.183 73.6449L339.892 72.3555L342.6 71.066L342.193 70.2106L339.484 71.5ZM354.213 264.322L351.537 265.678L363.699 289.678L366.375 288.322L369.051 286.966L356.889 262.966L354.213 264.322ZM366.375 288.322L363.699 289.678L364.802 291.856L367.479 290.5L370.155 289.144L369.051 286.966L366.375 288.322ZM367.479 290.5V287.5H282.888V290.5V293.5H367.479V290.5ZM282.888 290.5V287.5C271.973 287.5 261.796 281.742 254.721 275.847L252.801 278.152L250.88 280.457C258.461 286.773 269.971 293.5 282.888 293.5V290.5ZM252.801 278.152L254.721 275.848C251.197 272.911 248.513 269.998 246.95 267.864L244.529 269.636L242.109 271.408C244.009 274.004 247.05 277.266 250.88 280.457L252.801 278.152ZM244.529 269.636L246.95 267.864C246.151 266.773 245.72 265.984 245.573 265.549L242.731 266.513L239.89 267.476C240.339 268.798 241.212 270.184 242.109 271.408L244.529 269.636ZM242.731 266.513L245.573 265.549C245.557 265.504 245.548 265.472 245.542 265.448C245.535 265.423 245.535 265.414 245.535 265.418C245.536 265.423 245.549 265.534 245.498 265.702L242.626 264.836L239.754 263.969C239.276 265.554 239.714 266.955 239.89 267.476L242.731 266.513ZM242.626 264.836L245.498 265.703C245.438 265.9 245.295 266.148 245.027 266.323L243.384 263.813L241.74 261.304C240.666 262.007 240.042 263.016 239.754 263.969L242.626 264.836ZM243.384 263.813L245.027 266.323C244.78 266.485 244.558 266.5 244.48 266.5L244.479 263.5L244.479 260.5C243.779 260.5 242.751 260.642 241.741 261.303L243.384 263.813ZM244.479 263.5V266.5H353.796V263.5V260.5H244.479V263.5ZM353.796 263.5L351.12 264.857L351.537 265.679L354.213 264.322L356.888 262.965L356.471 262.143L353.796 263.5ZM491.537 162.333L488.818 161.066L488.677 161.368L491.396 162.635L494.116 163.902L494.256 163.6L491.537 162.333ZM491.396 162.635L488.678 161.365L442.678 259.865L445.396 261.135L448.115 262.404L494.115 163.904L491.396 162.635ZM445.396 261.135L442.679 259.865L441.285 262.847L444.003 264.117L446.721 265.387L448.114 262.405L445.396 261.135ZM444.003 264.117L446.744 262.899L445.407 259.891L442.666 261.109L439.925 262.328L441.262 265.336L444.003 264.117ZM442.666 261.109L445.407 259.891L419.407 201.391L416.666 202.609L413.925 203.828L439.925 262.328L442.666 261.109ZM416.666 202.609L419.408 201.391L419.127 200.76L416.386 201.979L413.644 203.197L413.924 203.827L416.666 202.609ZM416.386 201.979L419.094 203.269L419.391 202.646L416.683 201.355L413.974 200.065L413.677 200.688L416.386 201.979ZM416.683 201.355L419.391 202.645L449.391 139.645L446.683 138.355L443.974 137.066L413.974 200.066L416.683 201.355ZM446.683 138.355L449.391 139.645L449.799 138.789L447.09 137.5L444.381 136.211L443.974 137.066L446.683 138.355ZM447.09 137.5V140.5H491.537V137.5V134.5H447.09V137.5ZM491.537 137.5H488.537V162.333H491.537H494.537V137.5H491.537ZM879.247 209.5L879.247 212.5C879.241 212.5 879.084 212.5 878.889 212.372L880.536 209.864L882.183 207.357C881.127 206.663 880.036 206.5 879.247 206.5L879.247 209.5ZM880.536 209.864L878.889 212.371C878.672 212.229 878.562 212.03 878.521 211.893L881.394 211.028L884.266 210.164C883.961 209.148 883.304 208.093 882.184 207.357L880.536 209.864ZM881.394 211.028L878.521 211.892C878.487 211.78 878.507 211.745 878.496 211.84C878.484 211.936 878.452 212.08 878.383 212.282L881.226 213.242L884.068 214.203C884.323 213.449 884.779 211.869 884.267 210.165L881.394 211.028ZM881.226 213.242L878.384 212.282C878.079 213.181 877.267 214.634 875.89 216.522L878.313 218.29L880.737 220.058C882.211 218.037 883.464 215.989 884.068 214.203L881.226 213.242ZM878.313 218.29L875.89 216.522C873.17 220.25 868.536 225.288 862.483 230.349L864.407 232.65L866.331 234.952C872.691 229.635 877.681 224.248 880.737 220.058L878.313 218.29ZM864.407 232.65L862.483 230.349C850.349 240.493 832.791 250.5 813.858 250.5V253.5V256.5C834.8 256.5 853.693 245.518 866.331 234.952L864.407 232.65ZM813.858 253.5V250.5H671.562V253.5V256.5H813.858V253.5ZM671.562 253.5L674.239 254.853L675.339 252.677L672.661 251.324L669.984 249.971L668.884 252.147L671.562 253.5ZM672.661 251.324L675.339 252.677L696.045 211.677L693.367 210.324L690.689 208.972L669.983 249.972L672.661 251.324ZM693.367 210.324L696.045 211.676L696.461 210.852L693.783 209.5L691.105 208.148L690.689 208.972L693.367 210.324ZM693.783 209.5V212.5H879.247V209.5V206.5H693.783V209.5ZM327.67 208.324L324.992 209.677L345.698 250.677L348.376 249.324L351.054 247.972L330.348 206.972L327.67 208.324ZM348.376 249.324L345.698 250.677L346.798 252.853L349.476 251.5L352.153 250.147L351.053 247.971L348.376 249.324ZM349.476 251.5V248.5H207.179V251.5V254.5H349.476V251.5ZM207.179 251.5V248.5C188.246 248.5 170.688 238.493 158.554 228.349L156.63 230.65L154.706 232.952C167.344 243.518 186.238 254.5 207.179 254.5V251.5ZM156.63 230.65L158.554 228.349C152.501 223.288 147.867 218.25 145.147 214.522L142.724 216.29L140.3 218.058C143.357 222.248 148.346 227.635 154.706 232.952L156.63 230.65ZM142.724 216.29L145.147 214.522C143.77 212.634 142.958 211.181 142.654 210.282L139.812 211.242L136.969 212.203C137.573 213.989 138.826 216.037 140.3 218.058L142.724 216.29ZM139.812 211.242L142.654 210.282C142.585 210.08 142.553 209.936 142.541 209.84C142.53 209.745 142.55 209.78 142.517 209.892L139.644 209.028L136.771 208.165C136.258 209.869 136.715 211.449 136.969 212.203L139.812 211.242ZM139.644 209.028L142.516 209.893C142.475 210.03 142.365 210.229 142.148 210.371L140.501 207.864L138.854 205.357C137.733 206.093 137.076 207.148 136.771 208.164L139.644 209.028ZM140.501 207.864L142.148 210.372C141.953 210.5 141.796 210.5 141.79 210.5L141.79 207.5L141.79 204.5C141.001 204.5 139.91 204.663 138.854 205.357L140.501 207.864ZM141.79 207.5V210.5H327.254V207.5V204.5H141.79V207.5ZM327.254 207.5L324.576 208.852L324.992 209.676L327.67 208.324L330.348 206.972L329.932 206.148L327.254 207.5ZM940.119 147.5L940.119 150.5C940.146 150.5 940.015 150.507 939.84 150.391L941.488 147.885L943.136 145.378C942.059 144.67 940.941 144.5 940.119 144.5L940.119 147.5ZM941.488 147.885L939.84 150.391C939.643 150.262 939.547 150.083 939.514 149.971L942.387 149.107L945.26 148.244C944.947 147.203 944.277 146.128 943.137 145.378L941.488 147.885ZM942.387 149.107L939.514 149.971C939.487 149.882 939.509 149.877 939.494 150.012C939.478 150.147 939.434 150.334 939.35 150.582L942.192 151.542L945.035 152.502C945.321 151.654 945.787 150 945.26 148.244L942.387 149.107ZM942.192 151.542L939.35 150.582C938.982 151.674 938.012 153.401 936.397 155.617L938.821 157.384L941.246 159.151C942.958 156.801 944.367 154.479 945.035 152.502L942.192 151.542ZM938.821 157.384L936.397 155.617C933.201 160.001 927.765 165.914 920.67 171.849L922.595 174.15L924.52 176.451C931.921 170.259 937.713 163.997 941.246 159.151L938.821 157.384ZM922.595 174.15L920.67 171.849C906.452 183.744 885.855 195.5 863.621 195.5V198.5V201.5C887.865 201.5 909.798 188.768 924.52 176.451L922.595 174.15ZM863.621 198.5V195.5H697.562V198.5V201.5H863.621V198.5ZM697.562 198.5L700.24 199.852L701.339 197.676L698.661 196.324L695.983 194.972L694.885 197.148L697.562 198.5ZM698.661 196.324L701.339 197.676L725.564 149.676L722.886 148.324L720.208 146.973L695.983 194.973L698.661 196.324ZM722.886 148.324L725.565 149.673L725.98 148.849L723.301 147.5L720.621 146.151L720.206 146.975L722.886 148.324ZM723.301 147.5V150.5H940.119V147.5V144.5H723.301V147.5ZM298.151 146.324L295.473 147.676L319.698 195.676L322.376 194.324L325.054 192.973L300.83 144.973L298.151 146.324ZM322.376 194.324L319.698 195.676L320.797 197.852L323.475 196.5L326.153 195.148L325.054 192.972L322.376 194.324ZM323.475 196.5V193.5H157.416V196.5V199.5H323.475V196.5ZM157.416 196.5L157.416 193.5C135.182 193.5 114.585 181.744 100.367 169.849L98.4424 172.15L96.5174 174.451C111.239 186.768 133.172 199.5 157.416 199.5L157.416 196.5ZM98.4424 172.15L100.367 169.849C93.2723 163.914 87.8362 158.001 84.6401 153.617L82.2158 155.384L79.7916 157.151C83.3245 161.997 89.1163 168.259 96.5174 174.451L98.4424 172.15ZM82.2158 155.384L84.6401 153.617C83.0247 151.401 82.0556 149.674 81.687 148.582L78.8447 149.542L76.0024 150.502C76.6701 152.479 78.0788 154.801 79.7916 157.151L82.2158 155.384ZM78.8447 149.542L81.6871 148.582C81.6034 148.334 81.5595 148.147 81.5435 148.012C81.5277 147.877 81.5501 147.882 81.5235 147.971L78.6504 147.107L75.7773 146.244C75.2498 148 75.7162 149.654 76.0024 150.502L78.8447 149.542ZM78.6504 147.107L81.5235 147.971C81.4899 148.083 81.394 148.262 81.1973 148.391L79.5488 145.885L77.9003 143.378C76.7598 144.128 76.0901 145.203 75.7773 146.244L78.6504 147.107ZM79.5488 145.885L81.1969 148.392C81.0218 148.507 80.8909 148.5 80.9183 148.5L80.918 145.5L80.9177 142.5C80.0958 142.5 78.9777 142.67 77.9008 143.378L79.5488 145.885ZM80.918 145.5V148.5H297.736V145.5V142.5H80.918V145.5ZM297.736 145.5L295.057 146.849L295.472 147.673L298.151 146.324L300.831 144.975L300.416 144.151L297.736 145.5ZM1015 72.5V75.5C1015.03 75.5 1015.02 75.5033 1014.99 75.4952C1014.95 75.4861 1014.89 75.4636 1014.82 75.4155L1016.46 72.9092L1018.11 70.4029C1017.01 69.6773 1015.86 69.5 1015 69.5V72.5ZM1016.46 72.9092L1014.82 75.4151C1014.74 75.3644 1014.67 75.2979 1014.62 75.2275C1014.57 75.1607 1014.55 75.1031 1014.54 75.066L1017.41 74.2031L1020.29 73.3403C1019.96 72.27 1019.28 71.1705 1018.11 70.4032L1016.46 72.9092ZM1017.41 74.2031L1014.54 75.0659C1014.52 75.0068 1014.55 75.0402 1014.53 75.2223C1014.5 75.4043 1014.45 75.6446 1014.35 75.9479L1017.19 76.9072L1020.03 77.8666C1020.36 76.9023 1020.83 75.1572 1020.29 73.3403L1017.41 74.2031ZM1017.19 76.9072L1014.35 75.9478C1013.9 77.2715 1012.74 79.3304 1010.83 81.9453L1013.26 83.7119L1015.68 85.4786C1017.68 82.731 1019.28 80.0762 1020.03 77.8667L1017.19 76.9072ZM1013.26 83.7119L1010.83 81.9453C1007.06 87.1266 1000.65 94.1015 992.285 101.1L994.211 103.4L996.137 105.701C1004.8 98.4464 1011.57 91.1219 1015.68 85.4786L1013.26 83.7119ZM994.211 103.4L992.285 101.1C975.536 115.119 951.245 129 924.998 129V132V135C953.256 135 978.884 120.142 996.137 105.701L994.211 103.4ZM924.998 132V129H730.062V132V135H924.998V132ZM730.062 132L732.74 133.351L733.838 131.175L731.159 129.824L728.481 128.473L727.383 130.649L730.062 132ZM731.159 129.824L733.838 131.175L762.338 74.6753L759.659 73.3242L756.981 71.9731L728.481 128.473L731.159 129.824ZM759.659 73.3242L762.337 74.676L762.753 73.8518L760.075 72.5L757.397 71.1482L756.981 71.9724L759.659 73.3242ZM760.075 72.5V75.5H1015V72.5V69.5H760.075V72.5ZM261.376 71.3242L258.697 72.6753L287.197 129.175L289.876 127.824L292.555 126.473L264.055 69.9731L261.376 71.3242ZM289.876 127.824L287.198 129.175L288.295 131.351L290.974 130L293.652 128.649L292.554 126.473L289.876 127.824ZM290.974 130V127H96.0371V130V133H290.974V130ZM96.0371 130V127C69.79 127 45.4989 113.119 28.7498 99.0999L26.8242 101.4L24.8986 103.701C42.1516 118.142 67.7792 133 96.0371 133V130ZM26.8242 101.4L28.7498 99.0999C20.3888 92.1015 13.9772 85.1266 10.202 79.9453L7.77734 81.7119L5.35269 83.4786C9.46454 89.1219 16.2319 96.4465 24.8986 103.701L26.8242 101.4ZM7.77734 81.7119L10.202 79.9453C8.29676 77.3304 7.1369 75.2715 6.69009 73.9478L3.84766 74.9072L1.00522 75.8667C1.75103 78.0762 3.35076 80.731 5.35268 83.4786L7.77734 81.7119ZM3.84766 74.9072L6.69012 73.9479C6.58776 73.6446 6.53071 73.4043 6.50929 73.2223C6.48787 73.0402 6.51306 73.0068 6.49533 73.0659L3.62207 72.2031L0.748812 71.3403C0.203253 73.1572 0.679736 74.9023 1.00519 75.8666L3.84766 74.9072ZM3.62207 72.2031L6.4953 73.066C6.48415 73.1031 6.4609 73.1607 6.41354 73.2275C6.36367 73.2979 6.29673 73.3644 6.21963 73.4151L4.57031 70.9092L2.921 68.4032C1.75529 69.1705 1.07026 70.27 0.748839 71.3403L3.62207 72.2031ZM4.57031 70.9092L6.21897 73.4156C6.14592 73.4636 6.08131 73.4861 6.0453 73.4952C6.0135 73.5033 6.00866 73.5 6.03712 73.5L6.03711 70.5L6.03709 67.5C5.17664 67.5 4.02445 67.6774 2.92166 68.4028L4.57031 70.9092ZM6.03711 70.5V73.5H260.96V70.5V67.5H6.03711V70.5ZM260.96 70.5L258.282 71.8518L258.698 72.676L261.376 71.3242L264.054 69.9724L263.638 69.1482L260.96 70.5ZM734.345 74.665L731.656 73.3343L707.156 122.834L709.845 124.165L712.533 125.496L737.033 75.9958L734.345 74.665ZM709.845 124.165L707.156 122.835L706.743 123.67L709.432 125L712.121 126.33L712.534 125.495L709.845 124.165ZM709.432 125V122H534.5V125V128H709.432V125ZM534.5 125H537.5V72.5H534.5H531.5V125H534.5ZM534.5 72.5V75.5H735.416V72.5V69.5H534.5V72.5ZM735.416 72.5L732.727 71.1695L731.656 73.3346L734.345 74.665L737.034 75.9955L738.105 73.8305L735.416 72.5ZM492.537 124.5V121.5H452.176V124.5V127.5H492.537V124.5ZM452.176 124.5L454.891 125.775L455.895 123.638L453.18 122.362L450.464 121.087L449.46 123.225L452.176 124.5ZM453.18 122.362L455.895 123.637L478.895 74.637L476.18 73.3623L473.464 72.0876L450.464 121.088L453.18 122.362ZM476.18 73.3623L478.896 74.6358L479.3 73.7735L476.584 72.5L473.868 71.2265L473.463 72.0888L476.18 73.3623ZM476.584 72.5V75.5H492.537V72.5V69.5H476.584V72.5ZM492.537 72.5H489.537V124.5H492.537H495.537V72.5H492.537Z" fill="white"></path>
</svg><style>@media (prefers-color-scheme: light) { :root { filter: none; } }
@media (prefers-color-scheme: dark) { :root { filter: none; } }
</style></svg>